<svg width="400" height="400" viewBox="0 0 400 400" fill="none" xmlns="http://www.w3.org/2000/svg">
<rect width="400" height="400" fill="white"/>
<rect x="40.5" y="82.5" width="165" height="235" rx="12.5" stroke="url(#paint0_linear_81_3)" stroke-width="15"/>
<path d="M198 140C198 140 201.98 144 205.5 144C209.02 144 213 140 213 140V260C213 260 209.02 256 205.5 256C201.98 256 198 260 198 260V140Z" fill="white"/>
<path d="M122.464 190.913C122.294 189.195 121.563 187.859 120.27 186.908C118.977 185.956 117.223 185.48 115.007 185.48C113.501 185.48 112.23 185.693 111.193 186.119C110.156 186.531 109.361 187.107 108.807 187.845C108.267 188.584 107.997 189.422 107.997 190.359C107.969 191.141 108.132 191.822 108.487 192.405C108.857 192.987 109.361 193.491 110 193.918C110.639 194.33 111.378 194.692 112.216 195.004C113.054 195.303 113.949 195.558 114.901 195.771L118.821 196.709C120.724 197.135 122.472 197.703 124.062 198.413C125.653 199.124 127.031 199.997 128.196 201.034C129.361 202.071 130.263 203.293 130.902 204.699C131.555 206.105 131.889 207.717 131.903 209.536C131.889 212.206 131.207 214.521 129.858 216.482C128.523 218.428 126.591 219.94 124.062 221.02C121.548 222.085 118.516 222.618 114.964 222.618C111.442 222.618 108.374 222.078 105.76 220.999C103.161 219.919 101.129 218.321 99.6662 216.205C98.2173 214.074 97.4574 211.439 97.3864 208.3H106.314C106.413 209.763 106.832 210.984 107.571 211.964C108.324 212.93 109.325 213.662 110.575 214.159C111.839 214.642 113.267 214.884 114.858 214.884C116.42 214.884 117.777 214.656 118.928 214.202C120.092 213.747 120.994 213.115 121.634 212.305C122.273 211.496 122.592 210.565 122.592 209.514C122.592 208.534 122.301 207.71 121.719 207.043C121.151 206.375 120.313 205.807 119.205 205.338C118.111 204.869 116.768 204.443 115.178 204.06L110.426 202.866C106.747 201.972 103.842 200.572 101.712 198.669C99.581 196.766 98.5227 194.202 98.5369 190.977C98.5227 188.335 99.2259 186.027 100.646 184.053C102.081 182.078 104.048 180.537 106.548 179.429C109.048 178.321 111.889 177.767 115.071 177.767C118.31 177.767 121.136 178.321 123.551 179.429C125.98 180.537 127.869 182.078 129.219 184.053C130.568 186.027 131.264 188.314 131.307 190.913H122.464ZM147.015 203.08V222H137.939V189.273H146.589V195.047H146.973C147.697 193.143 148.912 191.638 150.616 190.53C152.321 189.408 154.387 188.847 156.816 188.847C159.089 188.847 161.071 189.344 162.761 190.338C164.451 191.332 165.765 192.753 166.703 194.599C167.64 196.432 168.109 198.619 168.109 201.162V222H159.032V202.781C159.047 200.778 158.535 199.216 157.498 198.094C156.461 196.957 155.034 196.389 153.216 196.389C151.994 196.389 150.914 196.652 149.977 197.178C149.054 197.703 148.329 198.47 147.804 199.479C147.292 200.473 147.029 201.673 147.015 203.08ZM184.595 222.618C182.507 222.618 180.646 222.256 179.013 221.531C177.379 220.793 176.087 219.706 175.135 218.271C174.197 216.822 173.729 215.018 173.729 212.859C173.729 211.041 174.063 209.514 174.73 208.278C175.398 207.043 176.307 206.048 177.457 205.295C178.608 204.543 179.915 203.974 181.378 203.591C182.855 203.207 184.403 202.938 186.023 202.781C187.926 202.582 189.46 202.398 190.625 202.227C191.79 202.043 192.635 201.773 193.161 201.418C193.686 201.062 193.949 200.537 193.949 199.841V199.713C193.949 198.364 193.523 197.32 192.67 196.581C191.832 195.842 190.639 195.473 189.091 195.473C187.457 195.473 186.158 195.835 185.192 196.56C184.226 197.27 183.587 198.165 183.274 199.244L174.879 198.562C175.305 196.574 176.143 194.855 177.393 193.406C178.643 191.943 180.256 190.821 182.23 190.04C184.219 189.244 186.52 188.847 189.134 188.847C190.952 188.847 192.692 189.06 194.354 189.486C196.03 189.912 197.514 190.572 198.807 191.467C200.114 192.362 201.143 193.513 201.896 194.919C202.649 196.311 203.026 197.98 203.026 199.926V222H194.418V217.462H194.162C193.636 218.484 192.933 219.386 192.053 220.168C191.172 220.935 190.114 221.538 188.878 221.979C187.642 222.405 186.214 222.618 184.595 222.618ZM187.195 216.354C188.53 216.354 189.709 216.091 190.732 215.565C191.754 215.026 192.557 214.301 193.139 213.392C193.722 212.483 194.013 211.453 194.013 210.303V206.83C193.729 207.014 193.338 207.185 192.841 207.341C192.358 207.483 191.811 207.618 191.2 207.746C190.589 207.859 189.979 207.966 189.368 208.065C188.757 208.151 188.203 208.229 187.706 208.3C186.641 208.456 185.71 208.705 184.915 209.045C184.119 209.386 183.501 209.848 183.061 210.43C182.621 210.999 182.401 211.709 182.401 212.561C182.401 213.797 182.848 214.741 183.743 215.395C184.652 216.034 185.803 216.354 187.195 216.354ZM210.067 234.273V189.273H219.016V194.77H219.421C219.819 193.889 220.394 192.994 221.147 192.085C221.914 191.162 222.908 190.395 224.13 189.784C225.366 189.159 226.9 188.847 228.732 188.847C231.119 188.847 233.32 189.472 235.337 190.722C237.354 191.957 238.967 193.825 240.174 196.325C241.381 198.811 241.985 201.929 241.985 205.679C241.985 209.33 241.396 212.412 240.217 214.926C239.052 217.426 237.461 219.322 235.444 220.615C233.441 221.893 231.197 222.533 228.711 222.533C226.95 222.533 225.451 222.241 224.215 221.659C222.994 221.077 221.992 220.345 221.211 219.464C220.43 218.57 219.833 217.668 219.421 216.759H219.144V234.273H210.067ZM218.952 205.636C218.952 207.582 219.222 209.28 219.762 210.729C220.302 212.178 221.083 213.307 222.106 214.116C223.129 214.912 224.371 215.31 225.835 215.31C227.312 215.31 228.562 214.905 229.585 214.095C230.607 213.271 231.381 212.135 231.907 210.686C232.447 209.223 232.717 207.54 232.717 205.636C232.717 203.747 232.454 202.085 231.928 200.651C231.403 199.216 230.629 198.094 229.606 197.284C228.583 196.474 227.326 196.07 225.835 196.07C224.357 196.07 223.107 196.46 222.085 197.241C221.076 198.023 220.302 199.131 219.762 200.565C219.222 202 218.952 203.69 218.952 205.636ZM254.982 222L242.496 178.364H252.575L259.798 208.683H260.16L268.129 178.364H276.758L284.705 208.747H285.089L292.312 178.364H302.39L289.904 222H280.913L272.603 193.47H272.262L263.974 222H254.982ZM312.974 222.618C310.886 222.618 309.025 222.256 307.392 221.531C305.758 220.793 304.466 219.706 303.514 218.271C302.576 216.822 302.108 215.018 302.108 212.859C302.108 211.041 302.441 209.514 303.109 208.278C303.777 207.043 304.686 206.048 305.836 205.295C306.987 204.543 308.294 203.974 309.757 203.591C311.234 203.207 312.782 202.938 314.402 202.781C316.305 202.582 317.839 202.398 319.004 202.227C320.169 202.043 321.014 201.773 321.539 201.418C322.065 201.062 322.328 200.537 322.328 199.841V199.713C322.328 198.364 321.902 197.32 321.049 196.581C320.211 195.842 319.018 195.473 317.47 195.473C315.836 195.473 314.537 195.835 313.571 196.56C312.605 197.27 311.966 198.165 311.653 199.244L303.258 198.562C303.684 196.574 304.522 194.855 305.772 193.406C307.022 191.943 308.635 190.821 310.609 190.04C312.598 189.244 314.899 188.847 317.512 188.847C319.331 188.847 321.071 189.06 322.733 189.486C324.409 189.912 325.893 190.572 327.186 191.467C328.493 192.362 329.522 193.513 330.275 194.919C331.028 196.311 331.404 197.98 331.404 199.926V222H322.797V217.462H322.541C322.015 218.484 321.312 219.386 320.431 220.168C319.551 220.935 318.493 221.538 317.257 221.979C316.021 222.405 314.593 222.618 312.974 222.618ZM315.574 216.354C316.909 216.354 318.088 216.091 319.11 215.565C320.133 215.026 320.936 214.301 321.518 213.392C322.1 212.483 322.392 211.453 322.392 210.303V206.83C322.108 207.014 321.717 207.185 321.22 207.341C320.737 207.483 320.19 207.618 319.579 207.746C318.968 207.859 318.358 207.966 317.747 208.065C317.136 208.151 316.582 208.229 316.085 208.3C315.02 208.456 314.089 208.705 313.294 209.045C312.498 209.386 311.88 209.848 311.44 210.43C311 210.999 310.779 211.709 310.779 212.561C310.779 213.797 311.227 214.741 312.122 215.395C313.031 216.034 314.181 216.354 315.574 216.354ZM347.523 178.364V222H338.446V178.364H347.523ZM363.871 178.364V222H354.794V178.364H363.871Z" fill="url(#paint1_linear_81_3)"/>
<defs>
<linearGradient id="paint0_linear_81_3" x1="123" y1="75" x2="123" y2="325" gradientUnits="userSpaceOnUse">
<stop stop-color="#A821EB"/>
<stop offset="1" stop-color="#34B8FF"/>
</linearGradient>
<linearGradient id="paint1_linear_81_3" x1="95" y1="200.5" x2="368" y2="200.5" gradientUnits="userSpaceOnUse">
<stop stop-color="#A821EB"/>
<stop offset="1" stop-color="#34B8FF"/>
</linearGradient>
</defs>
</svg>
