<svg width="250" height="250" viewBox="0 0 250 250" fill="none" xmlns="http://www.w3.org/2000/svg">
<path d="M118.345 5.88524C122.145 2.52452 127.855 2.52452 131.655 5.88524C134.866 8.72455 139.525 9.21418 143.256 7.10448C147.672 4.60735 153.257 5.79445 156.275 9.87188C158.825 13.3167 163.28 14.7642 167.368 13.4763C172.207 11.9519 177.423 14.2742 179.528 18.8902C181.307 22.79 185.363 25.1321 189.63 24.7223C194.68 24.2372 199.299 27.5933 200.398 32.546C201.327 36.7303 204.808 39.8646 209.066 40.3509C214.107 40.9264 217.927 45.1694 217.973 50.2425C218.011 54.5284 220.764 58.318 224.829 59.679C229.639 61.2899 232.494 66.2346 231.484 71.2062C230.631 75.4065 232.536 79.6857 236.228 81.862C240.599 84.4379 242.363 89.8681 240.341 94.521C238.633 98.4521 239.607 103.034 242.767 105.93C246.506 109.359 247.103 115.037 244.158 119.168C241.67 122.658 241.67 127.342 244.158 130.832C247.103 134.963 246.506 140.641 242.767 144.07C239.607 146.966 238.633 151.548 240.341 155.479C242.363 160.132 240.599 165.562 236.228 168.138C232.536 170.314 230.631 174.593 231.484 178.794C232.494 183.765 229.639 188.71 224.829 190.321C220.764 191.682 218.011 195.472 217.973 199.758C217.927 204.831 214.107 209.074 209.066 209.649C204.808 210.135 201.327 213.27 200.398 217.454C199.299 222.407 194.68 225.763 189.63 225.278C185.363 224.868 181.307 227.21 179.528 231.11C177.423 235.726 172.207 238.048 167.368 236.524C163.28 235.236 158.825 236.683 156.275 240.128C153.257 244.206 147.672 245.393 143.256 242.896C139.525 240.786 134.866 241.275 131.655 244.115C127.855 247.475 122.145 247.475 118.345 244.115C115.134 241.275 110.475 240.786 106.744 242.896C102.328 245.393 96.7435 244.206 93.7248 240.128C91.1745 236.683 86.7196 235.236 82.6315 236.524C77.7927 238.048 72.5767 235.726 70.4718 231.11C68.6934 227.21 64.6368 224.868 60.3703 225.278C55.3203 225.763 50.7011 222.407 49.6019 217.454C48.6732 213.27 45.1922 210.135 40.9337 209.649C35.8932 209.074 32.0727 204.831 32.0273 199.758C31.9888 195.472 29.2355 191.682 25.1712 190.321C20.3605 188.71 17.5057 183.765 18.516 178.794C19.3695 174.593 17.4642 170.314 13.7717 168.138C9.40108 165.562 7.63671 160.132 9.65854 155.479C11.3667 151.548 10.3928 146.966 7.23342 144.07C3.49386 140.641 2.89704 134.963 5.84209 130.832C8.33024 127.342 8.33024 122.658 5.84209 119.168C2.89704 115.037 3.49386 109.359 7.23342 105.93C10.3928 103.034 11.3667 98.4521 9.65854 94.521C7.63671 89.8681 9.40108 84.4379 13.7717 81.862C17.4642 79.6857 19.3695 75.4065 18.516 71.2062C17.5057 66.2346 20.3605 61.2899 25.1712 59.679C29.2355 58.318 31.9888 54.5284 32.0273 50.2425C32.0727 45.1694 35.8932 40.9264 40.9337 40.3509C45.1922 39.8646 48.6732 36.7303 49.6019 32.546C50.7011 27.5933 55.3203 24.2372 60.3703 24.7223C64.6368 25.1321 68.6934 22.79 70.4718 18.8902C72.5767 14.2742 77.7927 11.9519 82.6315 13.4763C86.7196 14.7642 91.1745 13.3167 93.7248 9.87188C96.7435 5.79445 102.328 4.60735 106.744 7.10448C110.475 9.21418 115.134 8.72455 118.345 5.88524Z" fill="url(#paint0_linear_50_5)"/>
<path d="M112.811 160C110.799 160 108.787 159.239 107.244 157.697L77.3 127.779C74.2333 124.715 74.2333 119.738 77.3 116.674C80.3667 113.61 85.3477 113.61 88.4144 116.674L112.811 141.05L161.586 92.298C164.652 89.234 169.633 89.234 172.7 92.298C175.767 95.3621 175.767 100.339 172.7 103.403L118.359 157.697C116.835 159.219 114.823 160 112.811 160Z" fill="white"/>
<defs>
<linearGradient id="paint0_linear_50_5" x1="250" y1="125" x2="0" y2="125" gradientUnits="userSpaceOnUse">
<stop stop-color="#A821EB"/>
<stop offset="1" stop-color="#34B8FF"/>
</linearGradient>
</defs>
</svg>
